<?xml version="1.0" encoding="UTF-8" standalone="no"?>
<!DOCTYPE svg PUBLIC "-//W3C//DTD SVG 1.1//EN" "http://www.w3.org/Graphics/SVG/1.1/DTD/svg11.dtd">
<svg width="100%" height="100%" viewBox="0 0 508 508" version="1.1" xmlns="http://www.w3.org/2000/svg" xmlns:xlink="http://www.w3.org/1999/xlink" xml:space="preserve" style="fill:rgb(41,50,60);fill-rule:evenodd;clip-rule:evenodd;stroke-linejoin:round;stroke-miterlimit:1.41421;">
    <g transform="matrix(1,0,0,1,-2,-2)">
        <path d="M484.6,2L27.4,2C13.4,2 2,13.4 2,27.4L2,484.6C2,498.6 13.4,510 27.4,510L484.6,510C498.6,510 510,498.6 510,484.6L510,27.4C510,13.4 498.6,2 484.6,2ZM154.4,449C154.4,454.6 149.9,459.2 144.2,459.2L63,459.2C57.4,459.2 52.8,454.6 52.8,449L52.8,63C52.8,57.4 57.3,52.8 63,52.8L144.3,52.8C149.9,52.8 154.5,57.4 154.5,63L154.5,449L154.4,449ZM306.8,449C306.8,454.6 302.3,459.2 296.6,459.2L215.3,459.2C209.7,459.2 205.1,454.6 205.1,449L205.1,190C205.1,184.4 209.6,179.8 215.3,179.8L296.6,179.8C302.2,179.8 306.8,184.4 306.8,190L306.8,449ZM459.2,449C459.2,454.6 454.7,459.2 449,459.2L367.7,459.2C362.1,459.2 357.5,454.6 357.5,449L357.5,190C357.5,184.4 362,179.8 367.7,179.8L449,179.8C454.6,179.8 459.2,184.4 459.2,190L459.2,449ZM459.2,118.8C459.2,124.4 454.7,129 449,129L215.4,129C209.8,129 205.2,124.4 205.2,118.8L205.2,63C205.2,57.4 209.7,52.8 215.4,52.8L449,52.8C454.6,52.8 459.2,57.4 459.2,63L459.2,118.8Z" style="fill-rule:nonzero;"/>
    </g>
</svg>
