<?xml version="1.0" encoding="UTF-8" standalone="no"?>
<!DOCTYPE svg PUBLIC "-//W3C//DTD SVG 1.1//EN" "http://www.w3.org/Graphics/SVG/1.1/DTD/svg11.dtd">
<svg width="100%" height="100%" viewBox="0 0 508 508" version="1.1" xmlns="http://www.w3.org/2000/svg" xmlns:xlink="http://www.w3.org/1999/xlink" xml:space="preserve" style="fill:rgb(41,50,60);-rule:evenodd;clip-rule:evenodd;stroke-linejoin:round;stroke-miterlimit:1.41421;">
    <g transform="matrix(1,0,0,1,-2,-2)">
        <path d="M464.6,2L47.4,2C33.4,2 22,13.4 22,27.4L22,484.6C22,498.6 33.4,510 47.4,510L464.6,510C478.6,510 490,498.6 490,484.6L490,27.4C490,13.4 478.6,2 464.6,2ZM164.4,459C164.4,464.6 159.9,469.2 154.2,469.2L73,469.2C67.4,469.2 62.8,464.6 62.8,459L62.8,53C62.8,47.4 67.3,42.8 73,42.8L154.3,42.8C159.9,42.8 164.5,47.4 164.5,53L164.5,459L164.4,459ZM449.246,459C449.246,464.6 444.746,469.2 439.046,469.2L215.3,469.2C209.7,469.2 205.1,464.6 205.1,459L205.1,190C205.1,184.4 209.6,179.8 215.3,179.8L439.046,179.8C444.646,179.8 449.246,184.4 449.246,190L449.246,459ZM449.2,459C449.2,464.6 449.246,184.4 449.246,190L449.2,459ZM449.2,118.8C449.2,124.4 444.7,129 439,129L215.4,129C209.8,129 205.2,124.4 205.2,118.8L205.2,53C205.2,47.4 209.7,42.8 215.4,42.8L439,42.8C444.6,42.8 449.2,47.4 449.2,53L449.2,118.8Z" style="fill-rule:nonzero;"/>
    </g>
</svg>
